<svg xmlns="http://www.w3.org/2000/svg" shape-rendering="geometricPrecision" text-rendering="geometricPrecision" image-rendering="optimizeQuality" fill-rule="evenodd" clip-rule="evenodd" viewBox="0 0 247 512.35"><path fill="#F576AB" d="M102.84 354.45h10.02v133.13c0 13.6 11.14 24.77 24.77 24.77 13.62 0 24.77-11.14 24.77-24.77V360.01h50.99L162.4 179.64v-8.63h8l.57-.14 38.23 135.99c2.87 10.23 13.5 16.21 23.74 13.34 10.24-2.88 16.21-13.51 13.34-23.75l-38.74-137.79c-.23-.81-.5-1.6-.82-2.35-4.91-20.44-7.1-32.66-19.44-41.95-11.38-8.57-51.05-12.89-84.44-12.96v253.05zM102.85 0c25.9 0 46.9 20.99 46.9 46.89 0 25.9-21 46.9-46.9 46.9h-.01V0h.01z"/><path fill="#5AC1F2" d="M102.84 93.79c-25.89-.01-46.88-21-46.88-46.9C55.96 21 76.95 0 102.84 0v93.79zM101.6 310.66h-5.81v176.92c0 13.6-11.18 24.77-24.77 24.77h-.01c-13.59 0-24.77-11.14-24.77-24.77V171.01h-8.65v124.54c0 10.34-8.46 18.79-18.79 18.79h-.01C8.46 314.34 0 305.89 0 295.55V161.51c-.05-21.79 7.33-37.07 20.69-47.13 11.62-8.76 46.41-13.09 80.91-12.99v209.27z"/><path fill="#5AC1F2" d="M102.85 354.38h-7.06v133.2c0 13.59-11.18 24.77-24.77 24.77h-.01c-13.59 0-24.77-11.14-24.77-24.77V171.01h-8.65v124.54c0 10.34-8.46 18.79-18.79 18.79h-.01C8.46 314.34 0 305.89 0 295.55V161.51c-.05-21.79 7.33-37.07 20.69-47.13 11.62-8.76 47.66-13.09 82.16-12.99v252.99z"/></svg>