<svg xmlns="http://www.w3.org/2000/svg" shape-rendering="geometricPrecision" text-rendering="geometricPrecision" image-rendering="optimizeQuality" fill-rule="evenodd" clip-rule="evenodd" viewBox="0 0 197 513.12"><path fill="#5AC1F2" fill-rule="nonzero" d="M98.5 0c23.85 0 43.18 19.33 43.18 43.18 0 23.84-19.33 43.17-43.18 43.17S55.32 67.02 55.32 43.18C55.32 19.33 74.65 0 98.5 0zm54.56 162.57v326.67c0 13.13-10.74 23.88-23.87 23.88s-23.87-10.74-23.87-23.88V297.16H92.31v192.08c0 13.13-10.75 23.88-23.87 23.88-13.13 0-23.88-10.74-23.88-23.88V162.57h-8.34V282.6c0 23.95-36.22 23.95-36.22 0V153.42c-.04-21 7.07-35.73 19.94-45.42 22.12-16.68 134.96-16.69 157.1-.02 12.88 9.69 20 24.43 19.96 45.44V282.6c0 23.95-36.22 23.95-36.22 0V162.57h-7.72z"/></svg>