<svg xmlns="http://www.w3.org/2000/svg" shape-rendering="geometricPrecision" text-rendering="geometricPrecision" image-rendering="optimizeQuality" fill-rule="evenodd" clip-rule="evenodd" viewBox="0 0 268 511.71"><path fill="#F576AB" d="M82.08 168.2L30.15 383.23h51.93v104.68c0 13.09 10.71 23.8 23.81 23.8 13.09 0 23.81-10.71 23.81-23.8V383.23h9.38v104.68c0 13.09 10.71 23.8 23.81 23.8 13.09 0 23.8-10.71 23.8-23.8V383.23h49l-49-209.44v-11.66h7.7l.54-.14 36.74 130.7c2.76 9.84 12.98 15.58 22.82 12.82s15.58-12.98 12.82-22.82l-37.23-132.43c-.22-.78-.48-1.54-.79-2.26-4.72-19.64-6.82-31.38-18.69-40.32-22.07-16.62-128.71-16.61-150.78.02C47 117.37 42.34 132.14 36.75 153l.37.09L.69 282.69c-2.76 9.84 2.98 20.06 12.82 22.82 9.84 2.76 20.06-2.98 22.82-12.82l36.75-130.73.68.17h8.32v6.07zM134.07 0c23.78 0 43.06 19.28 43.06 43.06s-19.28 43.05-43.06 43.05c-23.77 0-43.05-19.27-43.05-43.05C91.02 19.28 110.3 0 134.07 0z"/></svg>